<?xml version="1.0" encoding="utf-8"?>
<!-- Generator: Adobe Illustrator 28.3.0, SVG Export Plug-In . SVG Version: 6.00 Build 0)  -->
<svg version="1.1" id="Capa_1" xmlns="http://www.w3.org/2000/svg" xmlns:xlink="http://www.w3.org/1999/xlink" x="0px" y="0px"
	 viewBox="0 0 1200 545" style="enable-background:new 0 0 1200 545;" xml:space="preserve">
<style type="text/css">
	.st0{fill:none;}
	.st1{fill:#0000FF;}
</style>
<g>
	<path d="M538.7,360c0,8.3-6.7,15-15,15h-30.5c-24.8,0-45-20.2-45-45L448,215c0-8.3-6.7-15-15-15h-75c-8.3,0-15,6.7-15,15v85
		c0,8.3-6.7,15-15,15c-8.3,0-15-6.7-15-15v-85c0-24.8,20.2-45,45-45h75c24.8,0,45,20.2,45,45l0.2,115c0,8.3,6.7,15,15,15h30.5
		C532,345,538.7,351.7,538.7,360z"/>
	<path d="M659.5,375c-8.3,0-15-6.7-15-15V215c0-8.3-6.7-15-15-15h-75c-8.3,0-15,6.7-15,15v85c0,8.3-6.7,15-15,15s-15-6.7-15-15v-85
		c0-24.8,20.2-45,45-45h75c24.8,0,45,20.2,45,45v145C674.5,368.3,667.7,375,659.5,375z"/>
	<path class="st0" d="M969.2,330"/>
	<path d="M941.2,375c-8.3,0-15-6.7-15-15V215c0-8.3-6.7-15-15-15h-45c-8.3,0-15-6.7-15-15c0-8.3,6.7-15,15-15h45
		c24.8,0,45,20.2,45,45v145C956.2,368.3,949.5,375,941.2,375z"/>
	<path d="M327.2,375h-114c-24.8,0-45-20.2-45-45V215c0-24.8,20.2-45,45-45h54c8.3,0,15,6.7,15,15c0,8.3-6.7,15-15,15h-54
		c-8.3,0-15,6.7-15,15v115c0,8.3,6.7,15,15,15h114c8.3,0,15,6.7,15,15C342.2,368.3,335.5,375,327.2,375z"/>
	<path class="st1" d="M267.2,286.6h-33c-8.3,0-15-6.7-15-15c0-8.3,6.7-15,15-15h33c8.3,0,15,6.7,15,15
		C282.2,279.9,275.5,286.6,267.2,286.6z"/>
	<path class="st1" d="M608.5,286.6h-33c-8.3,0-15-6.7-15-15c0-8.3,6.7-15,15-15h33c8.3,0,15,6.7,15,15
		C623.5,279.9,616.7,286.6,608.5,286.6z"/>
	<path class="st1" d="M1017.2,200h-33c-8.3,0-15-6.7-15-15c0-8.3,6.7-15,15-15h33c8.3,0,15,6.7,15,15
		C1032.2,193.3,1025.5,200,1017.2,200z"/>
	<path d="M865.5,375h-114c-24.8,0-45-20.2-45-45V215c0-24.8,20.2-45,45-45h54c8.3,0,15,6.7,15,15c0,8.3-6.7,15-15,15h-54
		c-8.3,0-15,6.7-15,15v115c0,8.3,6.7,15,15,15h114c8.3,0,15,6.7,15,15C880.5,368.3,873.7,375,865.5,375z"/>
</g>
</svg>
